<?xml version="1.0"?>
<svg xmlns="http://www.w3.org/2000/svg" xmlns:xlink="http://www.w3.org/1999/xlink" version="1.1" id="Layer_1" x="0px" y="0px" viewBox="0 0 510.961 510.961" style="enable-background:new 0 0 510.961 510.961;" xml:space="preserve" width="512px" height="512px"><g><g transform="translate(1 1)">
	<g>
		<path d="M488.163,117.382c16.415-18.339-3.105-56.101-29.596-82.593c-26.492-27.375-64.255-46.042-82.594-29.597l-0.045-0.045    l-16.106,16.106c-30.87-15.345-56.529-16.229-70.125-2.633c-1.777,1.914-3.301,4.039-4.576,6.353L33.697,275.519    c-11.677,12.575-12.575,34.133-1.796,60.182c1.17,2.872,2.476,5.771,3.89,8.685l-16.465,16.465    c-19.761,19.761,30.54,70.961,35.93,76.351c4.491,4.491,41.319,40.421,64.674,40.421c4.491,0,8.982-0.898,11.677-4.491    l16.301-16.302c15.749,7.723,30.473,11.81,42.983,11.81c10.779,0,19.761-3.593,26.947-9.881l58.575-58.575    c5.908,11.798,18.119,19.951,32.148,19.951c15.27,0,26.947,11.677,26.947,26.947c0,35.032,27.846,62.877,62.877,62.877    s62.877-27.846,62.877-62.877c0-35.032-27.846-62.877-62.877-62.877c-5.389,0-8.982,3.593-8.982,8.982s3.593,8.982,8.982,8.982    c25.151,0,44.912,19.761,44.912,44.912s-19.761,44.912-44.912,44.912s-44.912-19.761-44.912-44.912s-19.761-44.912-44.912-44.912    c-9.304,0-17.009-7.169-17.878-16.255l183.155-183.155c13.453-14.294,12.737-38.822-2.145-69.16l15.53-15.207    c0.029-0.023,0.06-0.045,0.089-0.068c0.052-0.052,0.095-0.109,0.146-0.162l0.752-0.737L488.163,117.382z M394.791,15.926    c9.881,0,31.439,8.982,52.098,30.54c26.049,26.049,35.032,52.098,28.744,58.386c-0.385,0.33-0.847,0.608-1.376,0.836    c-0.02,0.008-0.036,0.017-0.056,0.024c-0.057,0.024-0.123,0.041-0.182,0.064c-2.897,1.013-8.786,0.879-18.148-2.721    c-0.547-0.195-1.098-0.414-1.648-0.63c-10.62-4.564-23.796-13.138-36.977-26.318c-2.442-2.442-4.734-4.884-6.878-7.31    c-0.714-0.809-1.413-1.615-2.094-2.42c-1.363-1.609-2.661-3.208-3.893-4.793c-1.232-1.585-2.399-3.155-3.5-4.706    c-1.102-1.551-2.139-3.082-3.111-4.59c-3.403-5.276-6.017-10.257-7.859-14.735c-0.263-0.64-0.511-1.269-0.742-1.888    c-0.464-1.237-0.864-2.431-1.203-3.577c-0.169-0.573-0.323-1.134-0.461-1.682c-1.52-6.029-1.163-10.525,0.998-12.687l0,0    C390.3,16.825,392.097,15.926,394.791,15.926z M346.286,59.94l23.354-23.354c0.803,2.542,1.783,5.148,2.892,7.788    c5.567,14.058,15.903,29.067,28.02,41.884c0.114,0.121,0.226,0.243,0.34,0.363c0.951,1,1.91,1.99,2.881,2.962    c15.784,15.784,35.578,28.694,52.977,33.255l-23.335,23.335c-6.288,0.898-26.947-9.881-52.098-35.032    c-23.559-23.559-34.507-43.965-35.06-50.883C346.266,60.15,346.27,60.037,346.286,59.94z M251.415,400.033L56.783,344.426    c-3.033-5.416-5.663-10.742-7.817-15.91c-6.628-15.464-7.814-28.504-4.565-36.169l90.094,26.789l0.077,0.153l0.162-0.082    l152.239,45.267L251.415,400.033z M281.166,55.676c1.107,7.171,3.341,14.926,6.734,23.128c6.825,16.753,17.94,34.363,31.858,51.35    l-91.314-24.03l52.27-52.471C280.864,54.327,281.014,55.001,281.166,55.676z M342.125,154.617    c18.032,18.308,37.56,32.887,56.577,42.924l-198.287-44.057l-6.799-12.398l20.166-20.244L342.125,154.617z M188.283,168.724    l-0.099,0.446l0.391,0.087l34.692,63.265l-0.15,0.599l0.554,0.138l61.358,111.894l-59.657-17.738l-74.301-143.621l29.33-29.443    L188.283,168.724z M201.469,320.307l-54.423-16.182l-38.95-77.19l29.663-29.777L201.469,320.307z M123.37,297.086l-65.697-19.534    l37.065-37.208L123.37,297.086z M282.2,302.63l54.129,12.488l-30.536,30.536L282.2,302.63z M270.626,281.523l-23.211-42.329    l131.873,32.965l-27.978,27.978L270.626,281.523z M235.648,217.736l-23.742-43.296l216.906,48.194l-34.711,34.711L235.648,217.736    z M119.928,459.66c-6.288,0.898-26.947-9.881-52.098-35.032S31.9,377.919,32.798,372.53l11.677-11.677    c9.881,17.067,23.354,33.235,38.625,48.505c15.27,15.27,32.337,28.744,48.505,38.625L119.928,459.66z M205.262,446.186    c-14.372,14.372-63.775-4.491-108.688-49.404c-9.209-9.593-17.59-19.514-24.88-29.413l165.19,47.195L205.262,446.186z     M458.567,147.07c8.084,19.761,9.881,35.93,2.695,43.116c-6.288,6.288-21.558,6.288-40.421-1.796    c-22.456-8.982-46.709-26.049-68.267-47.607c-5.389-5.614-10.498-11.34-15.27-17.109c-10.737-12.979-19.768-26.171-26.455-38.777    c-2.229-4.202-4.197-8.339-5.882-12.381c-8.084-18.863-8.084-34.133-1.797-40.421c2.695-2.695,7.186-4.491,13.474-4.491    c8.084,0,17.965,2.695,28.744,7.186l-12.575,12.575c-3.282,3.282-4.623,7.435-4.566,12.098    c-0.645,23.367,35.944,60.599,40.496,65.151c4.491,4.491,41.319,40.421,64.674,40.421c4.491,0,8.982-1.797,11.677-5.389    L458.567,147.07z" data-original="#000000" class="active-path" data-old_color="#27cd57" fill="#27cd57"/>
	</g>
</g></g> </svg>
